<svg xmlns:dc="http://purl.org/dc/elements/1.1/" xmlns:cc="http://creativecommons.org/ns#" xmlns:rdf="http://www.w3.org/1999/02/22-rdf-syntax-ns#" xmlns:svg="http://www.w3.org/2000/svg" xmlns="http://www.w3.org/2000/svg" xmlns:sodipodi="http://sodipodi.sourceforge.net/DTD/sodipodi-0.dtd" xmlns:inkscape="http://www.inkscape.org/namespaces/inkscape" version="1.1" x="0px" y="0px" viewBox="0 0 100 125"><g transform="translate(0,-952.36218)"><path d="m 7.0159591,961.36223 c -1.6568997,0 -2.9999997,1.34315 -2.9999997,3 0,1.65685 1.3431,3 2.9999997,3 l 11.5624999,0 10.3125,48.65617 c 0.408,1.8316 1.6084,3.356 3.125,3.3438 l 50,0 c 1.5849,0.022 3.0427,-1.4149 3.0427,-3 0,-1.5851 -1.4578,-3.0224 -3.0427,-3 l -47.5625,0 -1.2813,-6 52.8438,0 c 1.3432,-0.01 2.6123,-1.0331 2.9062,-2.3437 l 6.999996,-30.00002 c 0.3901,-1.74107 -1.121996,-3.64346 -2.906196,-3.65625 l -67.4375,0 -1.625,-7.625 c -0.2839,-1.3321 -1.5755,-2.3764 -2.9375,-2.375 z m 19.8124999,16 15.625,0 1.5,9 -15.2187,0 z m 21.75,0 18.875,0 -1.5,9 -15.875,0 z m 25,0 15.6563,0 -2.0938,9 -15.0625,0 z m -43.5625,15 14.9375,0 1.5,8.99997 -14.5313,0 z m 21.0625,0 13.875,0 -1.5,8.99997 -10.875,0 z m 20,0 14.6563,0 -2.0938,8.99997 -14.0625,0 z m -28.0625,30.99987 c -5.4873,0 -10,4.5126 -10,10 0,5.4873 4.5127,10 10,10 5.4873,0 10,-4.5127 10,-10 0,-5.4873 -4.5127,-10 -10,-10 z m 28,0 c -5.4873,0 -10,4.5126 -10,10 0,5.4873 4.5127,10 10,10 5.4873,0 10,-4.5127 10,-10 0,-5.4873 -4.5127,-10 -10,-10 z m -28,6 c 2.2447,0 4,1.7553 4,4 0,2.2446 -1.7553,4 -4,4 -2.2445,0 -4,-1.7554 -4,-4 0,-2.2447 1.7555,-4 4,-4 z m 28,0 c 2.2447,0 4,1.7553 4,4 0,2.2446 -1.7553,4 -4,4 -2.2445,0 -4,-1.7554 -4,-4 0,-2.2447 1.7555,-4 4,-4 z" style="text-indent:0;text-transform:none;direction:ltr;block-progression:tb;baseline-shift:baseline;color:#000000;enable-background:accumulate;" fill="#000000" fill-opacity="1" stroke="none" marker="none" visibility="visible" display="inline" overflow="visible"/></g></svg>