<svg xmlns="http://www.w3.org/2000/svg" xmlns:xlink="http://www.w3.org/1999/xlink" xml:space="preserve" version="1.1" style="shape-rendering:geometricPrecision;text-rendering:geometricPrecision;image-rendering:optimizeQuality;" viewBox="0 0 847 1058.75" x="0px" y="0px" fill-rule="evenodd" clip-rule="evenodd"><defs><style type="text/css">.fil0 {fill:black;fill-rule:nonzero}</style></defs><g><path class="fil0" d="M360 148c84,0 159,38 209,97l-42 36c-40,-47 -100,-77 -167,-77 -122,0 -220,98 -220,220 0,122 98,220 220,220 138,0 241,-125 217,-259l47 -41c53,175 -78,355 -264,355 -152,0 -276,-124 -276,-276 0,-152 124,-276 276,-276zm-50 188l75 95 331 -284 45 53 -386 331 -120 -151 54 -43z"/></g></svg>