<svg xmlns="http://www.w3.org/2000/svg" xmlns:xlink="http://www.w3.org/1999/xlink" fill="#ccc" version="1.1" x="0px" y="0px" viewBox="0 0 64 80" enable-background="new 0 0 64 64" xml:space="preserve"><g><path d="M59.55,24.47H32.87c-0.04-0.94,0.07-2.53,1.03-3.72c0.98-1.22,2.65-1.81,5-1.75l8.36,0.19c0.75,0.07,7.34,0.54,8.14-3.48   c0.35-1.75,0.09-3.18-0.75-4.26c-1.12-1.43-3.19-2.13-6.31-2.13H31.9c-0.53,0-0.96,0.45-0.96,1s0.43,1,0.96,1h16.43   c2.44,0,4.1,0.48,4.82,1.39c0.47,0.6,0.59,1.44,0.36,2.59c-0.36,1.8-4.26,2.05-6.15,1.89l-8.42-0.19   c-2.94-0.07-5.15,0.76-6.52,2.47c-1.34,1.66-1.52,3.72-1.48,5H4.45C2,24.47,0,26.54,0,29.09v20.97c0,2.55,2,4.63,4.45,4.63h55.1   c2.45,0,4.45-2.08,4.45-4.63V29.09C64,26.54,62,24.47,59.55,24.47z M62.08,50.06c0,1.45-1.13,2.63-2.53,2.63H4.45   c-1.39,0-2.53-1.18-2.53-2.63V29.09c0-1.45,1.13-2.63,2.53-2.63h55.1c1.39,0,2.53,1.18,2.53,2.63V50.06z"/><path d="M41.24,47.12H23.59c-0.53,0-0.96,0.45-0.96,1s0.43,1,0.96,1h17.64c0.53,0,0.96-0.45,0.96-1S41.77,47.12,41.24,47.12z"/><path d="M10.27,30.48H8.84c-0.36,0-0.65,0.29-0.65,0.65v1.54c0,0.36,0.29,0.65,0.65,0.65h1.43c0.36,0,0.65-0.29,0.65-0.65v-1.54   C10.92,30.77,10.63,30.48,10.27,30.48z"/><path d="M17.75,30.48h-1.43c-0.36,0-0.65,0.29-0.65,0.65v1.54c0,0.36,0.29,0.65,0.65,0.65h1.43c0.36,0,0.65-0.29,0.65-0.65v-1.54   C18.4,30.77,18.11,30.48,17.75,30.48z"/><path d="M23.8,33.31h1.43c0.36,0,0.65-0.29,0.65-0.65v-1.54c0-0.36-0.29-0.65-0.65-0.65H23.8c-0.36,0-0.65,0.29-0.65,0.65v1.54   C23.16,33.02,23.44,33.31,23.8,33.31z"/><path d="M31.28,33.31h1.43c0.36,0,0.65-0.29,0.65-0.65v-1.54c0-0.36-0.29-0.65-0.65-0.65h-1.43c-0.36,0-0.65,0.29-0.65,0.65v1.54   C30.64,33.02,30.93,33.31,31.28,33.31z"/><path d="M38.77,33.31h1.43c0.36,0,0.65-0.29,0.65-0.65v-1.54c0-0.36-0.29-0.65-0.65-0.65h-1.43c-0.36,0-0.65,0.29-0.65,0.65v1.54   C38.12,33.02,38.41,33.31,38.77,33.31z"/><path d="M47.68,30.48h-1.43c-0.36,0-0.65,0.29-0.65,0.65v1.54c0,0.36,0.29,0.65,0.65,0.65h1.43c0.36,0,0.65-0.29,0.65-0.65v-1.54   C48.33,30.77,48.04,30.48,47.68,30.48z"/><path d="M55.16,30.48h-1.43c-0.36,0-0.65,0.29-0.65,0.65v1.54c0,0.36,0.29,0.65,0.65,0.65h1.43c0.36,0,0.65-0.29,0.65-0.65v-1.54   C55.81,30.77,55.52,30.48,55.16,30.48z"/><path d="M10.27,37.01H8.84c-0.36,0-0.65,0.29-0.65,0.65v1.54c0,0.36,0.29,0.65,0.65,0.65h1.43c0.36,0,0.65-0.29,0.65-0.65v-1.54   C10.92,37.3,10.63,37.01,10.27,37.01z"/><path d="M17.75,37.01h-1.43c-0.36,0-0.65,0.29-0.65,0.65v1.54c0,0.36,0.29,0.65,0.65,0.65h1.43c0.36,0,0.65-0.29,0.65-0.65v-1.54   C18.4,37.3,18.11,37.01,17.75,37.01z"/><path d="M23.8,39.84h1.43c0.36,0,0.65-0.29,0.65-0.65v-1.54c0-0.36-0.29-0.65-0.65-0.65H23.8c-0.36,0-0.65,0.29-0.65,0.65v1.54   C23.16,39.55,23.44,39.84,23.8,39.84z"/><path d="M31.28,39.84h1.43c0.36,0,0.65-0.29,0.65-0.65v-1.54c0-0.36-0.29-0.65-0.65-0.65h-1.43c-0.36,0-0.65,0.29-0.65,0.65v1.54   C30.64,39.55,30.93,39.84,31.28,39.84z"/><path d="M38.77,39.84h1.43c0.36,0,0.65-0.29,0.65-0.65v-1.54c0-0.36-0.29-0.65-0.65-0.65h-1.43c-0.36,0-0.65,0.29-0.65,0.65v1.54   C38.12,39.55,38.41,39.84,38.77,39.84z"/><path d="M47.68,37.01h-1.43c-0.36,0-0.65,0.29-0.65,0.65v1.54c0,0.36,0.29,0.65,0.65,0.65h1.43c0.36,0,0.65-0.29,0.65-0.65v-1.54   C48.33,37.3,48.04,37.01,47.68,37.01z"/><path d="M55.16,37.01h-1.43c-0.36,0-0.65,0.29-0.65,0.65v1.54c0,0.36,0.29,0.65,0.65,0.65h1.43c0.36,0,0.65-0.29,0.65-0.65v-1.54   C55.81,37.3,55.52,37.01,55.16,37.01z"/><path d="M47.68,46.7h-1.43c-0.36,0-0.65,0.29-0.65,0.65v1.54c0,0.36,0.29,0.65,0.65,0.65h1.43c0.36,0,0.65-0.29,0.65-0.65v-1.54   C48.33,46.99,48.04,46.7,47.68,46.7z"/><path d="M55.16,46.7h-1.43c-0.36,0-0.65,0.29-0.65,0.65v1.54c0,0.36,0.29,0.65,0.65,0.65h1.43c0.36,0,0.65-0.29,0.65-0.65v-1.54   C55.81,46.99,55.52,46.7,55.16,46.7z"/><path d="M10.27,46.7H8.84c-0.36,0-0.65,0.29-0.65,0.65v1.54c0,0.36,0.29,0.65,0.65,0.65h1.43c0.36,0,0.65-0.29,0.65-0.65v-1.54   C10.92,46.99,10.63,46.7,10.27,46.7z"/><path d="M17.75,46.7h-1.43c-0.36,0-0.65,0.29-0.65,0.65v1.54c0,0.36,0.29,0.65,0.65,0.65h1.43c0.36,0,0.65-0.29,0.65-0.65v-1.54   C18.4,46.99,18.11,46.7,17.75,46.7z"/></g></svg>