<?xml version="1.0" encoding="utf-8"?>
<!-- Generator: Adobe Illustrator 14.0.0, SVG Export Plug-In . SVG Version: 6.00 Build 43363)  -->
<!DOCTYPE svg PUBLIC "-//W3C//DTD SVG 1.1//EN" "http://www.w3.org/Graphics/SVG/1.1/DTD/svg11.dtd">
<svg version="1.1" xmlns="http://www.w3.org/2000/svg" xmlns:xlink="http://www.w3.org/1999/xlink" x="0px" y="0px" width="50px"
	 height="50px" viewBox="0 0 50 50" enable-background="new 0 0 50 50" xml:space="preserve">
<g id="Layer_3">
</g>
<g id="Layer_3_copy">
</g>
<g id="Layer_2">
	<g>
		<path fill="none" stroke="#000" d="M34.301,20.85c0.854-1.482,1.341-8.041,1.341-9.874c0-5.583-4.526-10.108-10.109-10.108
			c-5.582,0-10.108,4.526-10.108,10.108c0,1.887,0.517,8.491,1.417,10.002c1.762,2.961,4.997,5.637,8.692,5.637
			C29.282,26.615,32.556,23.882,34.301,20.85z"/>
		<path fill="none" stroke="#000" d="M32.56,29.295c-4.175,2.088-6.137,2.598-7.026,2.688c-0.891-0.09-2.851-0.6-7.028-2.688
			c-6.681-3.34-13.939,10.023-13.939,19.238c2.895,0,17.107,0,20.852,0c0.079,0,0.161,0,0.23,0c3.745,0,17.958,0,20.852,0
			C46.5,39.318,39.242,25.955,32.56,29.295z"/>
	</g>
</g>
</svg>
