<?xml version="1.0" encoding="iso-8859-1"?>
<!-- Generator: Adobe Illustrator 19.0.0, SVG Export Plug-In . SVG Version: 6.00 Build 0)  -->
<svg version="1.1" id="Capa_1" xmlns="http://www.w3.org/2000/svg" xmlns:xlink="http://www.w3.org/1999/xlink" x="0px" y="0px"
	 viewBox="0 0 496 496" style="enable-background:new 0 0 496 496;" xml:space="preserve">
<g>
	<g>
		<g>
			<path d="M447.82,390.192c-5.376-32.232-27.976-58.68-58.976-69.016l-68.84-22.944V288h-16v10.456L249.86,318.76l-57.856-20.424
				V288h-16v10.232l-68.832,22.944c-31,10.336-53.6,36.784-58.976,69.016L30.556,496h434.888L447.82,390.192z M312.004,480h-191.16
				l7.12-71.2l-15.92-1.592l-7.28,72.8H49.452l14.52-87.184c4.4-26.368,22.888-48.008,48.256-56.472l23.688-7.896l101.456,35.808
				l5.328-15.096l-82.048-28.96l23.272-7.752l112.064,39.552c9.576,3.376,16.016,12.48,16.016,22.632V480z M391.244,480l-7.28-72.8
				l-15.92,1.592l7.12,71.2h-47.16V374.64c0-16.928-10.728-32.096-26.688-37.728l-27.968-9.872l38.816-14.56l71.608,23.864
				c25.368,8.464,43.856,30.104,48.256,56.472L446.556,480H391.244z"/>
			<path d="M147.54,215.552c4.08,14.04,11.616,26.912,22.24,37.536l31.192,31.192c7.552,7.552,17.6,11.72,28.288,11.72h37.488
				c10.688,0,20.736-4.168,28.288-11.72l31.192-31.192c10.624-10.624,18.152-23.496,22.24-37.536
				c19.936-2.256,35.536-19.024,35.536-39.552c0-13.128-6.448-24.704-16.248-32h0.248V24c0-13.232-10.768-24-24-24h-192
				c-13.232,0-24,10.768-24,24v120h0.248c-9.8,7.296-16.248,18.872-16.248,32C112.004,196.528,127.604,213.296,147.54,215.552z
				 M336.004,190.856c0,19.24-7.496,37.312-21.088,50.92l-31.192,31.192c-4.536,4.536-10.56,7.032-16.976,7.032H229.26
				c-6.416,0-12.448-2.496-16.976-7.032l-31.192-31.192c-13.592-13.6-21.088-31.68-21.088-50.912V152h176V190.856z M368.004,176
				c0,10.552-6.896,19.44-16.376,22.64c0.224-2.576,0.376-5.16,0.376-7.784v-37.384C361.292,156.784,368.004,165.584,368.004,176z
				 M144.004,24c0-4.416,3.584-8,8-8h8v72h16V16h16v72h16V16h16v72h16V16h16v72h16V16h16v72h16V16h16v72h16V16h8
				c4.416,0,8,3.584,8,8v80h-208V24z M144.004,120h208v16.808c-2.584-0.528-5.264-0.808-8-0.808h-192c-2.736,0-5.416,0.28-8,0.808
				V120z M144.004,153.472v37.384c0,2.616,0.152,5.208,0.376,7.784c-9.48-3.2-16.376-12.088-16.376-22.64
				C128.004,165.584,134.716,156.784,144.004,153.472z"/>
			<rect x="280.004" y="448" width="16" height="16"/>
			<rect x="200.004" y="448" width="16" height="16"/>
			<rect x="280.004" y="376" width="16" height="16"/>
			<rect x="200.004" y="376" width="16" height="16"/>
		</g>
	</g>
</g>
<g>
</g>
<g>
</g>
<g>
</g>
<g>
</g>
<g>
</g>
<g>
</g>
<g>
</g>
<g>
</g>
<g>
</g>
<g>
</g>
<g>
</g>
<g>
</g>
<g>
</g>
<g>
</g>
<g>
</g>
</svg>
