<svg xmlns="http://www.w3.org/2000/svg" xmlns:xlink="http://www.w3.org/1999/xlink" viewBox="0 0 400 300" width="406" height="306" class="illustration styles_illustrationTablet__1DWOa"><defs><linearGradient id="linear-gradient" x1="180.75" y1="120.74" x2="166.51" y2="133.86" gradientUnits="userSpaceOnUse"><stop offset="0" stop-color="#d4a397"></stop><stop offset="1" stop-color="#fff"></stop></linearGradient><linearGradient id="linear-gradient-2" x1="77.29" y1="173.85" x2="63.05" y2="186.96" xlink:href="#linear-gradient"></linearGradient><linearGradient id="linear-gradient-3" x1="228.29" y1="177.97" x2="184.94" y2="232.16" xlink:href="#linear-gradient"></linearGradient></defs><title>PP</title><g style="isolation: isolate;"><g id="Layer_2" data-name="Layer 2"><path d="M198.14,274.81,25.64,172.87c-5.49-3.08-10.2-8.15-4.85-11.46L193.91,61.63c2.6-1.61,6.54-2.66,9.18-1.13L384.17,165.59c5.49,3.19,6.48,12.1,1,15.29L220.87,274.65A22.94,22.94,0,0,1,198.14,274.81Z" fill="#ffa87d"></path><polyline points="197.11 101.18 148.78 127.78 173.2 141.94 194.81 130.19" fill="url(#linear-gradient)" style="mix-blend-mode: multiply;"></polyline><polyline points="93.65 154.28 45.32 180.89 69.74 195.05 91.35 183.3" fill="url(#linear-gradient-2)" style="mix-blend-mode: multiply;"></polyline><polyline points="149.95 185.77 104.01 208.34 205.85 267.38 295.95 218.39" fill="url(#linear-gradient-3)" style="mix-blend-mode: multiply;"></polyline><path d="M135.36,140.26s18.09-59.12,17.33-59.39l-5.49-2L130.5,139.52Z" fill="#e29e14"></path><path d="M128.48,137.24S144.3,92.54,144,91.85,139,88.52,139,88.52l-15,47.76" fill="#e29e14"></path><path d="M133,141.95s18.09-59.12,17.33-59.39l-5.49-2L128.16,141.2Z" fill="#fbc144"></path><path d="M124.11,138.19s15.82-44.7,15.48-45.39-4.92-3.33-4.92-3.33l-15,47.76" fill="#fbc144"></path><path d="M89.93,128.52s-3-61.75-3.82-61.75H80.28l4.83,62.7Z" fill="#e29e14"></path><path d="M82.44,128s-.26-47.41-.82-47.95-5.75-1.47-5.75-1.47l2.07,50" fill="#e29e14"></path><path d="M88.31,130.9s-3-61.75-3.82-61.75H78.65l4.83,62.7Z" fill="#fbc144"></path><path d="M78.65,130.39S78.39,83,77.83,82.44,72.08,81,72.08,81l2.07,50" fill="#fbc144"></path><path d="M74.56,130C73.67,125.14,63.08,72,63.08,72l-6.57.48,13.68,58.89Z" fill="#e29e14"></path><path d="M70.63,122.71S56.91,77.32,56.22,77s-5.93.23-5.93.23l16.19,47.37" fill="#e29e14"></path><path d="M76.32,127.69c-.9-4.9-11.49-58.07-11.49-58.07l-6.57.48L71.94,129Z" fill="#fbc144"></path><path d="M67.68,126.06S54,80.68,53.27,80.32s-5.93.23-5.93.23l16.19,47.37" fill="#fbc144"></path><path d="M116.06,142.12c.53-4.95,5.49-58.94,5.49-58.94l-6.44-1.41-3.62,60.35Z" fill="#e29e14"></path><path d="M100.5,138s-3-61.75-3.82-61.75H90.84L95.67,139Z" fill="#e29e14"></path><polyline points="74.57 138.34 73.37 83.42 67.29 80.81 70.15 138.34" fill="#e29e14"></polyline><path d="M128,141s6-47,5.51-47.64S128,91.13,128,91.13L123.45,141" fill="#e29e14"></path><path d="M114.37,136.09s-.26-47.41-.82-47.95-5.75-1.47-5.75-1.47l2.07,50" fill="#e29e14"></path><path d="M93,137.49s-.26-47.41-.82-47.95-5.75-1.47-5.75-1.47l2.07,50" fill="#e29e14"></path><path d="M119.86,141.43c.53-4.95,5.49-58.94,5.49-58.94l-6.44-1.41-3.62,60.35Z" fill="#fbc144"></path><path d="M98.87,140.38s-3-61.75-3.82-61.75H89.22L94,141.33Z" fill="#fbc144"></path><polyline points="79.36 133.54 78.15 78.63 72.08 76.01 74.94 133.54" fill="#fbc144"></polyline><path d="M125.59,137c.64-1.21,11.85-47.67,11.85-47.67l4.08,3.62L130.46,137" fill="#fbc144"></path><path d="M124.22,143.36s6-47,5.51-47.64-5.51-2.21-5.51-2.21l-4.55,49.85" fill="#fbc144"></path><path d="M110.59,138.47s-.26-47.41-.82-47.95S104,89.06,104,89.06l2.07,50" fill="#fbc144"></path><path d="M89.22,139.87S89,92.45,88.4,91.92s-5.75-1.47-5.75-1.47l2.07,50" fill="#fbc144"></path><path d="M107.8,135.19s-3-61.75-3.82-61.75H98.14l4.83,62.7Z" fill="#e29e14"></path><path d="M100.3,134.69s-.26-47.41-.82-47.95-5.75-1.47-5.75-1.47l2.07,50" fill="#e29e14"></path><path d="M106.17,137.57s-3-61.75-3.82-61.75H96.52l4.83,62.7Z" fill="#fbc144"></path><path d="M96.52,137.07s-.26-47.41-.82-47.95-5.75-1.47-5.75-1.47l2.07,50" fill="#fbc144"></path><path d="M149.62,97.2a40.65,40.65,0,0,0-5,2.83s-11.09,34.93-27.61,35.4-26.67-16.28-27.37-16.28-8.5,2.12-8.5,2.12L56.88,109.71l12.51,67,17.93,8.73s42.95-17.7,45.31-19.59S149.62,97.2,149.62,97.2Z" fill="#f74f3d"></path><ellipse cx="238.56" cy="184.39" rx="87.52" ry="45.03" fill="#68e1fd"></ellipse><ellipse cx="238.56" cy="184.39" rx="87.52" ry="45.03" fill="#093e3e" opacity="0.29"></ellipse><ellipse cx="238.56" cy="179.14" rx="87.52" ry="45.03" fill="#68e1fd"></ellipse><ellipse cx="239.23" cy="180.18" rx="75.36" ry="35.15" fill="#093e3e" opacity="0.29"></ellipse><path d="M158.49,61.57l8.47,59.3a24.42,24.42,0,0,0,17.51,7.62c11,0,16.1-6.21,16.38-8.75s7.34-58.17,7.34-58.17Z" fill="#68e1fd"></path><path d="M170,61.6H158.49L167,120.9a24.61,24.61,0,0,0,11,6.68C174.17,105.72,170.81,83.78,170,61.6Z" opacity="0.33"></path><polyline points="157.36 54.49 157.36 58.83 209.31 59.57 209.31 54.49" fill="#ebeae8"></polyline><ellipse cx="183.33" cy="58.83" rx="25.98" ry="17.25" fill="#ebeae8"></ellipse><ellipse cx="183.33" cy="54.49" rx="25.98" ry="17.25" fill="#fffff2"></ellipse><ellipse cx="183.33" cy="53.59" rx="20.2" ry="12.01" fill="#ebeae8"></ellipse><ellipse cx="183.33" cy="53.59" rx="16.04" ry="9.54" fill="#fffff2"></ellipse><path d="M187.9,54.2c-1.08-.41-2.16-.84-3.23-1.28.85-.44,1.69-.88,2.54-1.31.39-.2.12-.83-.27-.63-1,.52-2.08,1.06-3.12,1.6q-2-.8-3.94-1.64a.34.34,0,0,0-.26.63c1.13.48,2.27,1,3.4,1.42q-1.93,1-3.84,2.08c-.38.21-.11.84.27.63q2.19-1.21,4.4-2.36,1.89.76,3.78,1.49A.34.34,0,0,0,187.9,54.2Z" fill="#606060"></path><path d="M222.15,17l-24.58-4.92c-6.69.26-8.66,7-8.66,7l-7.08,32.75c-.8.41,4.61,1.83,4.61,1.83s5.62-30.12,7.19-33.14A6.51,6.51,0,0,1,198.17,17s16.11,3.27,22.17,4.66A5,5,0,0,1,222.15,17Z" fill="#ddd3c3"></path><path d="M222.15,17s1.57.53,1.28,2.74-1.65,2.57-3.08,2C220.35,21.69,219.39,18,222.15,17Z" fill="#968d7e"></path><ellipse cx="237.92" cy="175.69" rx="56.25" ry="33.13" fill="#f48f3b"></ellipse><path d="M184.48,174.36c.45.61,10.26,24.27,52.11,24.35,49.22.1,53.38-18.75,54.28-22.23s.3-11,0-10.9-103.67.76-105,2.27S184.48,174.36,184.48,174.36Z" fill="#67352a"></path><path d="M257.07,138.5c-.38-1-.75-2-1.12-3l6.73-.31a60.46,60.46,0,0,0,5.88,11.77A140.42,140.42,0,0,0,284,171.87a54.6,54.6,0,0,0,3.93,5.07c3.32,7.26,12.57,12.82,2.52,13.08-6.59.17-10.46-2.65-13-3.89q-4.86-10.1-9.32-20.37C264.7,156.57,260.93,147.52,257.07,138.5Z" fill="#99ce45"></path><path d="M250,135.75l3.1-.14,1.37,3.18,18.47,50.88c-.71,6,1.94,15.76-4.43,11.49-5.39-3.61-5.7-10.66-7.79-12.23q-2.08-7.15-3.73-14.41C255.39,161.51,252.73,148.62,250,135.75Z" fill="#99ce45"></path><path d="M244.57,138.1c0-.7-.06-1.4-.09-2.1l2.84-.13a1.16,1.16,0,0,0-.47,1.15L255,192.44c-3.44,4.9-2.75,10.06-5.72,2.33-2.07-5.4-2.57-9.05-4.11-10.51q0-22.56-.09-45.12A1.28,1.28,0,0,0,244.57,138.1Z" fill="#99ce45"></path><path d="M266.18,135l1.17-.05a1.08,1.08,0,0,0,.33,1.65c8.6,5.08,16,12.29,25.12,16.23a8.64,8.64,0,0,0,1,2.12c4.55,7.25,8.13,9.15,3.48,13.33-3.1,2.79-7.51,1.06-9.48,2.07-8.2-10.21-14.66-21.61-20.81-33.19C266.73,136.45,266.46,135.73,266.18,135Z" fill="#99ce45"></path><path d="M273.95,134.66s20.64-2.12,23.14,7.28c1.22,4.58-.61,6.06-2.27,7.22-8.41-4.7-16.75-9.51-25.11-14.31Z" fill="#99ce45"></path><path d="M239.8,136.87l.26-.66.51,0-.45.94A1.34,1.34,0,0,0,239.8,136.87Z" fill="#99ce45"></path><path d="M242.11,138.92c.06,1,.11,1.93.19,2.89a177.69,177.69,0,0,1-9.3,44.81c-1.66-.11-2.23-1.55-2.32-4.95-.16-6.11,6.47-14.54,1.52-15.82,2.13-4.57,3.17-9.61,4.84-14.36C238.54,147.21,240.25,143,242.11,138.92Z" fill="#99ce45"></path><path d="M237.45,184.54a1.21,1.21,0,0,0,.19.84l-1,.4c.31-.72.63-1.44.93-2.17Z" fill="#99ce45"></path><path d="M267.67,136.6a1.08,1.08,0,0,1-.33-1.65l2.36-.11c8.35,4.8,16.7,9.61,25.11,14.31-1.35.94-2.6,1.68-2,3.68C283.63,148.9,276.28,141.69,267.67,136.6Z" fill="#88b72c"></path><path d="M268.56,146.94a60.46,60.46,0,0,1-5.88-11.77l3.5-.16c.28.72.55,1.43.83,2.14,6.15,11.58,12.61,23,20.81,33.19-1,.5-1.36,1.68-.65,4.43a12.85,12.85,0,0,0,.78,2.16,54.6,54.6,0,0,1-3.93-5.07A140.42,140.42,0,0,1,268.56,146.94Z" fill="#88b72c"></path><path d="M253.06,135.61l2.89-.13c.37,1,.74,2,1.12,3,3.86,9,7.62,18.07,11,27.25q4.47,10.27,9.32,20.37c-1.73-.84-2.88-1-3.87,1a7.76,7.76,0,0,0-.66,2.53L254.43,138.8Z" fill="#88b72c"></path><path d="M247.32,135.87l2.64-.12c2.77,12.86,5.43,25.75,7,38.78q1.66,7.25,3.73,14.41c-.78-.59-1.81-.41-3.45,1a13.42,13.42,0,0,0-2.24,2.5L246.85,137A1.16,1.16,0,0,1,247.32,135.87Z" fill="#88b72c"></path><path d="M239.25,136.24l.81,0-.26.66a1.34,1.34,0,0,1,.33.26l.45-.94,3.9-.18c0,.7,0,1.4.09,2.1a1.28,1.28,0,0,1,.49,1q0,22.56.09,45.12c-1.05-1-2.59-1-5.47.27l-2,.86a1.21,1.21,0,0,1-.19-.84l.1-.93c-.3.73-.62,1.45-.93,2.17a9.56,9.56,0,0,1-3.63.85,177.69,177.69,0,0,0,9.3-44.81c-.08-1-.13-1.93-.19-2.89-1.86,4.12-3.58,8.3-5.08,12.57-1.67,4.75-2.71,9.8-4.84,14.36l-.22-.06C226.6,164.71,239.25,136.24,239.25,136.24Z" fill="#88b72c"></path><path d="M189.69,162.2s-3.8,14.14-5.25,21.76a40.53,40.53,0,0,1,15.23-5.74c8.8-1.34,61,2.73,61,2.73s13,3.93,15.78,5.58c3.67,2.21,10.12,7.93,10.12,7.93s2.5-13.52,2.39-18.51c-.09-4-1.05-14.14-1.05-14.14" fill="#ffc31a"></path><path d="M227.75,138.84l1.81-2.67-6.46-1.9a60.46,60.46,0,0,1-8.52,10,140.42,140.42,0,0,1-21,20.52,54.6,54.6,0,0,1-5,4c-5,6.26-15.27,9.46-5.57,12.1,6.36,1.73,10.79-.08,13.58-.67q7.12-8.65,13.91-17.56C216,154.57,221.85,146.68,227.75,138.84Z" fill="#99ce45"></path><path d="M235.31,137.86l-3-.88-2.09,2.76-30.07,45c-.73,6-5.64,14.85,1.56,12.22,6.1-2.22,8.07-9,10.48-10q3.72-6.45,7.06-13.1C223.9,161.58,229.56,149.69,235.31,137.86Z" fill="#99ce45"></path><path d="M240,141.43c.21-.67.39-1.34.59-2l-2.73-.8a1.16,1.16,0,0,1,.19,1.23l-21.11,51.87c2.17,5.58.28,10.42,5,3.62,3.3-4.75,4.65-8.18,6.49-9.23l10.85-43.8A1.28,1.28,0,0,1,240,141.43Z" fill="#99ce45"></path><path d="M219.74,133.28l-1.12-.33a1.08,1.08,0,0,1-.71,1.52c-9.57,2.88-18.43,8.13-28.27,9.77a8.64,8.64,0,0,1-1.49,1.81c-6.15,6-10.08,6.95-6.56,12.11,2.35,3.45,7,2.82,8.71,4.27,10.4-8,19.39-17.49,28.12-27.27C218.87,134.54,219.3,133.91,219.74,133.28Z" fill="#99ce45"></path><path d="M212.28,131.08s-19.54-7-24.21,1.55c-2.28,4.16-.86,6,.49,7.56,9.29-2.55,18.54-5.24,27.79-7.91Z" fill="#99ce45"></path><path d="M244.91,141.37c0-.24-.06-.47-.09-.7l-.49-.15c.07.34.14.68.21,1A1.34,1.34,0,0,1,244.91,141.37Z" fill="#99ce45"></path><path d="M242.18,142.81c-.29.92-.57,1.84-.87,2.76a177.69,177.69,0,0,0-1.65,45.74c1.64.29,2.54-1,3.43-4.25,1.61-5.9-2.81-15.66,2.3-15.73-1-4.94-.78-10.09-1.27-15.1C243.67,151.72,243,147.25,242.18,142.81Z" fill="#99ce45"></path><path d="M235.83,188.22a1.21,1.21,0,0,1-.38.77l.89.63c-.13-.78-.27-1.55-.39-2.33Z" fill="#99ce45"></path><path d="M217.91,134.47a1.08,1.08,0,0,0,.71-1.52l-2.26-.67c-9.26,2.67-18.51,5.35-27.79,7.91,1.09,1.24,2.12,2.25,1.08,4.05C199.48,142.6,208.34,137.35,217.91,134.47Z" fill="#88b72c"></path><path d="M214.58,144.3a60.46,60.46,0,0,0,8.52-10l-3.36-1c-.44.63-.87,1.26-1.32,1.88-8.73,9.78-17.72,19.31-28.12,27.27.83.72.92,2-.42,4.46a12.85,12.85,0,0,1-1.27,1.91,54.6,54.6,0,0,0,5-4A140.42,140.42,0,0,0,214.58,144.3Z" fill="#88b72c"></path><path d="M232.34,137l-2.77-.82-1.81,2.67c-5.9,7.84-11.71,15.73-17.22,23.83q-6.79,8.91-13.91,17.56c1.88-.4,3-.25,3.52,1.91a7.76,7.76,0,0,1,0,2.62l30.07-45Z" fill="#88b72c"></path><path d="M237.85,138.61l-2.54-.75c-5.75,11.83-11.41,23.72-16,36q-3.34,6.65-7.06,13.1c.9-.38,1.86,0,3.12,1.79a13.42,13.42,0,0,1,1.58,3L238,139.84A1.16,1.16,0,0,0,237.85,138.61Z" fill="#88b72c"></path><path d="M245.6,140.89l-.78-.23c0,.24.06.47.09.7a1.34,1.34,0,0,0-.38.17c-.07-.34-.14-.68-.21-1l-3.75-1.1c-.19.67-.38,1.35-.59,2a1.28,1.28,0,0,0-.72.88l-10.85,43.8c1.26-.72,2.74-.33,5.25,1.56.64.49,1.23.92,1.78,1.32a1.21,1.21,0,0,0,.38-.77l.12-.93c.12.78.26,1.55.39,2.33a9.56,9.56,0,0,0,3.32,1.69,177.69,177.69,0,0,1,1.65-45.74c.31-.92.58-1.84.87-2.76.82,4.44,1.49,8.91,1.93,13.42.49,5,.3,10.16,1.27,15.1h.23C251.09,171.56,245.6,140.89,245.6,140.89Z" fill="#88b72c"></path><path d="M199.67,172.16v6.06s6.57,12,28.33,3.63l-.62-2.79" fill="#217738"></path><path d="M199.67,172.16s0,6.28,10.59,9.12,17.12-2.22,17.12-2.22Z" fill="#e0ffb2"></path><path d="M179,161.81v5s.08,9.08,21.4,8.84v-3.17s-9.79-.82-14.1-2.84C181.26,167.33,179.23,164.16,179,161.81Z" fill="#c61424"></path><ellipse cx="196.73" cy="162.11" rx="17.74" ry="10.46" fill="#ff2624"></ellipse><path d="M184.25,156.46s-3,1.83-3,5,1.43,4.68,3,4.68,5.94-5.63,7.42-4.35-4.85,5.67-3.6,7.27,12.5,2.91,14.55,1.31,4.45-9-1.54-11.07S184.25,156.46,184.25,156.46Z" fill="#c61424"></path><path d="M294.2,163.22v5s-1.61,10.42-26.7,7l1.35-2.28s13.73.14,18.05-1.88C291.93,168.75,294,165.57,294.2,163.22Z" fill="#c61424"></path><ellipse cx="276.46" cy="163.53" rx="17.74" ry="10.46" fill="#ff2624"></ellipse><path d="M288.94,157.88s3,1.83,3,5-1.43,4.68-3,4.68-5.94-5.63-7.42-4.35,4.85,5.67,3.6,7.27-12.5,2.91-14.55,1.31-4.45-9,1.54-11.07S288.94,157.88,288.94,157.88Z" fill="#c61424"></path><path d="M278.92,172.16v6.06s-6.57,12-28.33,3.63l.62-2.79" fill="#217738"></path><path d="M278.92,172.16s0,6.28-10.59,9.12-17.12-2.22-17.12-2.22Z" fill="#e0ffb2"></path><path d="M217.45,180.38v5.47s4,6.84,20.19,6.84,19.85-7.06,19.85-7.27v-5" fill="#c61424"></path><ellipse cx="237.47" cy="180.95" rx="20.02" ry="9.35" fill="#ff2624"></ellipse><path d="M219.8,180.38s4,5.93,9,6.15,6.12-6,8-4.39,1.31,5.8,5.33,5.37S254.75,183.63,255,181" fill="#c61424"></path><ellipse cx="238.8" cy="146.82" rx="57.15" ry="36.94" fill="#f48f3b"></ellipse><path d="M278.05,173.39c-19.66,8.58-46.73,8.28-65.88-1.46-10.07-5.12-19.69-13.15-24-23.63a24.42,24.42,0,0,1-.07-18.59,27.05,27.05,0,0,0-6.5,17.1c0,20.4,25.59,36.94,57.15,36.94,16,0,30.43-4.25,40.81-11.09C279.09,172.91,278.58,173.16,278.05,173.39Z" fill="#e27a2d"></path><ellipse cx="233.48" cy="126.8" rx="2.85" ry="1.01" fill="#ffe5d2"></ellipse><ellipse cx="245.15" cy="136.18" rx="2.85" ry="1.01" fill="#ffe5d2"></ellipse><ellipse cx="213.84" cy="128.39" rx="2.85" ry="1.01" fill="#ffe5d2"></ellipse><ellipse cx="225.18" cy="138.92" rx="2.85" ry="1.01" fill="#ffe5d2"></ellipse><ellipse cx="262.68" cy="124.25" rx="2.85" ry="1.01" fill="#ffe5d2"></ellipse><ellipse cx="269.7" cy="141.8" rx="2.85" ry="1.01" fill="#ffe5d2"></ellipse><ellipse cx="249.97" cy="152.84" rx="2.85" ry="1.01" fill="#ffe5d2"></ellipse><ellipse cx="223.1" cy="151.04" rx="2.85" ry="1.01" fill="#ffe5d2"></ellipse></g></g></svg>