<?xml version="1.0" encoding="iso-8859-1"?>
<!-- Generator: Adobe Illustrator 19.0.0, SVG Export Plug-In . SVG Version: 6.00 Build 0)  -->
<svg version="1.1" id="Capa_1" xmlns="http://www.w3.org/2000/svg" xmlns:xlink="http://www.w3.org/1999/xlink" x="0px" y="0px"
	 viewBox="0 0 496 496" style="enable-background:new 0 0 496 496;" xml:space="preserve">
<g>
	<g>
		<g>
			<path d="M447.816,390.192c-5.376-32.232-27.976-58.68-58.976-69.016L320,298.232V288h-16v15.024l-8.392,33.552
				c-2.52,0.472-5,1.168-7.288,2.312l-4.344,2.176L259.752,312h-23.504l-24.224,29.064l-4.344-2.176
				c-2.296-1.144-4.768-1.848-7.288-2.312L192,303.024V288h-16v10.232l-68.832,22.944c-31,10.336-53.6,36.784-58.976,69.016
				L30.552,496H248h217.448L447.816,390.192z M272,364.944l23.48-11.736c1.576-0.792,3.344-1.208,5.104-1.208
				c6.296,0,11.416,5.12,11.416,11.416v25.168c0,6.296-5.12,11.416-11.416,11.416c-1.768,0-3.528-0.416-5.112-1.208L272,387.056
				V364.944z M243.752,328h8.496l17.016,20.424L262.112,352h-28.216l-7.16-3.584L243.752,328z M256,368v16h-16v-16H256z
				 M195.416,352c1.768,0,3.528,0.416,5.112,1.208L224,364.944v22.112l-23.48,11.736c-1.576,0.792-3.344,1.208-5.104,1.208
				C189.12,400,184,394.88,184,388.584v-25.168C184,357.12,189.12,352,195.416,352z M104.752,480.008H49.448l14.52-87.176
				c4.384-26.296,22.784-47.864,48.032-56.376l0.032,70.752L104.752,480.008z M297.224,480l6.696-46.864l-15.84-2.264L281.056,480
				H248h-33.056l-7.016-49.136l-15.84,2.264L198.776,480H120.84l7.16-72v-76.896l50.336-16.784l6.016,24.056
				C174.744,342.64,168,352.24,168,363.416v25.168C168,403.696,180.296,416,195.416,416c4.232,0,8.48-1,12.264-2.896L233.888,400
				h28.216l26.208,13.104c3.8,1.896,8.04,2.896,12.272,2.896c15.12,0,27.416-12.304,27.416-27.416v-25.168
				c0-11.176-6.736-20.776-16.352-25.04l6.016-24.056L368,331.104l0.04,77.696l7.12,71.2H297.224z M391.24,480L384,408v-71.544
				c25.248,8.512,43.648,30.08,48.032,56.376L446.552,480H391.24z"/>
			<path d="M147.536,215.552c4.08,14.04,11.616,26.912,22.24,37.536l31.192,31.2c7.552,7.552,17.6,11.712,28.288,11.712h37.488
				c10.688,0,20.736-4.16,28.288-11.712l31.192-31.2c10.624-10.624,18.152-23.504,22.24-37.536C368.4,213.296,384,196.528,384,176
				c0-13.128-6.448-24.704-16.248-32H368v-24C368,53.832,314.168,0,248,0S128,53.832,128,120v17.368c0,2.168,0.12,4.312,0.336,6.44
				C118.184,151.304,112,163.248,112,176C112,196.528,127.6,213.296,147.536,215.552z M336,190.864
				c0,19.232-7.496,37.312-21.088,50.912l-31.192,31.2c-4.536,4.528-10.56,7.024-16.976,7.024h-37.488
				c-6.416,0-12.448-2.496-16.976-7.024l-31.192-31.2c-13.592-13.6-21.088-31.68-21.088-50.912V184c0-17.648,14.352-32,32-32h25.312
				c21.312,0,42.648-5.04,61.712-14.568l14.6-7.304c10.648,12.584,25.872,20.32,42.376,21.608V190.864z M368,176
				c0,10.552-6.896,19.44-16.376,22.64c0.224-2.568,0.376-5.16,0.376-7.776v-37.392C361.288,156.784,368,165.584,368,176z M144,120
				c0-57.344,46.656-104,104-104s104,46.656,104,104v16.808c-2.584-0.528-5.264-0.808-8-0.808h-3.16
				c-15.384,0-29.656-7.64-38.184-20.44l-3.912-5.872l-26.872,13.432c-16.856,8.424-35.712,12.88-54.56,12.88H192
				c-17.936,0-33.584,9.904-41.816,24.512c-4.008-6.976-6.184-14.88-6.184-23.144V120z M132.936,161.768
				c2.704,6.392,6.536,12.296,11.304,17.56c-0.152,1.544-0.24,3.096-0.24,4.672v6.864c0,2.616,0.152,5.208,0.376,7.784
				C134.896,195.44,128,186.552,128,176C128,170.768,129.888,165.864,132.936,161.768z"/>
			<rect x="240" y="448" width="16" height="16"/>
			<rect x="240" y="416" width="16" height="16"/>
		</g>
	</g>
</g>
<g>
</g>
<g>
</g>
<g>
</g>
<g>
</g>
<g>
</g>
<g>
</g>
<g>
</g>
<g>
</g>
<g>
</g>
<g>
</g>
<g>
</g>
<g>
</g>
<g>
</g>
<g>
</g>
<g>
</g>
</svg>
